<svg width="400" height="400" viewBox="0 0 400 400" fill="none" xmlns="http://www.w3.org/2000/svg">
<path d="M138.046 165.954C117.335 165.954 100.4 182.886 100.4 203.597C100.4 223.736 116.413 240.298 136.338 241.199C133.819 246.242 132.392 251.917 132.392 257.912C132.392 277.353 147.312 293.463 166.27 295.368C163.771 300.396 162.356 306.048 162.356 312.019C162.356 332.731 179.29 349.667 200.002 349.667C220.713 349.667 237.645 332.731 237.645 312.019C237.645 306.105 236.261 300.502 233.806 295.511C253.684 294.557 269.637 278.016 269.637 257.912C269.637 251.862 268.184 246.138 265.622 241.061C284.629 239.204 299.601 223.073 299.601 203.597C299.601 182.886 282.669 165.954 261.957 165.954C249.147 165.954 237.788 172.436 230.981 182.279C224.174 172.435 212.813 165.954 200.002 165.954C187.191 165.954 175.829 172.435 169.023 182.279C162.216 172.436 150.857 165.954 138.046 165.954ZM138.046 179.287C151.552 179.287 162.356 190.091 162.356 203.597C162.356 217.103 151.552 227.91 138.046 227.91C124.541 227.91 113.734 217.103 113.734 203.597C113.734 190.091 124.541 179.287 138.046 179.287ZM200.002 179.287C213.507 179.287 224.312 190.091 224.312 203.597C224.312 217.103 213.507 227.91 200.002 227.91C186.496 227.91 175.689 217.103 175.689 203.597C175.689 190.091 186.496 179.287 200.002 179.287ZM261.957 179.287C275.463 179.287 286.267 190.091 286.267 203.597C286.267 217.103 275.463 227.91 261.957 227.91C248.452 227.91 237.645 217.103 237.645 203.597C237.645 190.091 248.452 179.287 261.957 179.287ZM170.038 233.6C183.544 233.6 194.348 244.407 194.348 257.912C194.348 266.469 190.009 273.935 183.395 278.264C182.338 278.787 181.31 279.36 180.312 279.977C177.196 281.419 173.719 282.225 170.038 282.225C156.533 282.225 145.726 271.418 145.726 257.912C145.726 244.407 156.533 233.6 170.038 233.6ZM231.994 233.6C245.5 233.6 256.304 244.407 256.304 257.912C256.304 271.418 245.5 282.225 231.994 282.225C218.488 282.225 207.682 271.418 207.682 257.912C207.682 244.407 218.488 233.6 231.994 233.6ZM200.002 287.709C213.507 287.709 224.312 298.513 224.312 312.019C224.312 325.525 213.507 336.334 200.002 336.334C186.496 336.334 175.689 325.525 175.689 312.019C175.689 303.464 180.029 295.998 186.64 291.67C187.7 291.145 188.732 290.573 189.734 289.954C192.848 288.515 196.324 287.709 200.002 287.709Z" fill="#4F5D95"/>
<path d="M251.854 50.3888C233.563 52.6047 216.675 62.8152 206.215 77.9826C204.332 80.7134 202.705 83.5579 201.252 86.4645C199.532 83.0232 197.428 79.7694 194.958 76.7847C187.947 68.3139 178.257 62.2661 167.567 59.6937C164.895 59.0507 162.182 58.6303 159.455 58.4281C151.363 57.8279 143.165 59.1619 135.661 62.35C135.578 62.3841 135.495 62.4165 135.413 62.4506C135.161 62.5884 134.917 62.7425 134.684 62.9118C134.363 63.08 134.055 63.274 133.765 63.4923C133.514 63.7308 133.281 63.9885 133.07 64.2632C132.828 64.512 132.606 64.7794 132.406 65.0628C132.24 65.3681 132.097 65.6861 131.981 66.0135C131.839 66.2817 131.715 66.5591 131.611 66.8441C131.588 66.9308 131.569 67.0198 131.546 67.1072C128.808 77.5599 129.849 88.7881 134.473 98.5576C139.137 108.41 147.258 116.392 157.192 120.881C164.728 124.286 173.108 125.608 181.327 124.691C184.652 124.319 187.918 123.579 191.069 122.506C189.15 137.215 189.483 152.202 192.051 166.816C194.619 166.257 197.277 165.946 200.007 165.946C201.88 165.946 203.716 166.1 205.517 166.368C202.089 148.386 202.411 129.66 206.504 111.824C208.705 102.231 211.993 93.0918 217.197 85.5447C225.402 73.6466 239.114 65.3562 253.463 63.6177C254.332 63.5122 255.172 63.2366 255.934 62.8066C256.697 62.3765 257.367 61.8003 257.907 61.1111C258.447 60.4219 258.846 59.6329 259.081 58.7895C259.316 57.9462 259.383 57.0649 259.278 56.1958C259.065 54.441 258.163 52.8425 256.772 51.752C255.381 50.6616 253.613 50.1684 251.858 50.3809L251.854 50.3888ZM155.442 71.6361C158.482 71.6147 161.518 71.9541 164.45 72.6597C172.268 74.541 179.557 79.0895 184.684 85.2847C189.658 91.2947 192.708 99.0346 193.257 106.847C189.184 109.313 184.553 110.923 179.84 111.449C174.042 112.096 167.993 111.137 162.676 108.735C155.707 105.586 149.789 99.7779 146.517 92.8656C143.714 86.943 142.773 80.0289 143.807 73.5243C147.543 72.3044 151.495 71.6642 155.442 71.6361Z" fill="#F9FAFB"/>
</svg>
